<?xml version="1.0" encoding="UTF-8"?>
<svg id="Camada_2" data-name="Camada 2" xmlns="http://www.w3.org/2000/svg" viewBox="0 0 740.64 372.67">
  <defs>
    <style>
      .cls-1 {
        fill: #fff;
        stroke-width: 0px;
      }
    </style>
  </defs>
  <g id="Camada_1-2" data-name="Camada 1">
    <g>
      <g>
        <circle class="cls-1" cx="154.51" cy="19.34" r="19.34"/>
        <circle class="cls-1" cx="156.65" cy="243.66" r="19.34"/>
        <circle class="cls-1" cx="19.34" cy="131.5" r="19.34"/>
        <circle class="cls-1" cx="292.35" cy="131.5" r="19.34"/>
        <path class="cls-1" d="M156.68,254.74L5.87,131.55,154.46,8.26l151.4,123.19-149.17,123.29ZM32.81,131.45l123.81,101.13,122.23-101.03L154.56,30.42l-121.75,101.02Z"/>
      </g>
      <g>
        <circle class="cls-1" cx="154.51" cy="129.01" r="19.34"/>
        <circle class="cls-1" cx="156.65" cy="353.33" r="19.34"/>
        <circle class="cls-1" cx="19.34" cy="241.17" r="19.34"/>
        <circle class="cls-1" cx="292.35" cy="241.17" r="19.34"/>
        <path class="cls-1" d="M156.68,364.41L5.87,241.22l148.58-123.29,151.4,123.19-149.17,123.29ZM32.81,241.12l123.81,101.13,122.23-101.03-124.29-101.13-121.75,101.02Z"/>
      </g>
      <rect class="cls-1" x="10.78" y="131.5" width="17.12" height="109.67"/>
      <rect class="cls-1" x="145.95" y="19.34" width="17.12" height="109.67"/>
      <rect class="cls-1" x="148.09" y="249.65" width="17.12" height="109.67"/>
      <rect class="cls-1" x="283.79" y="131.5" width="17.12" height="109.67"/>
      <g>
        <path class="cls-1" d="M412.68,210.03c9.52.83,21.45,6.72,21.45,17.27,0,11.95-13.94,15.2-23.71,15.2h-36.56v-32.47h-23.53v54.73h60.1c26.25,0,47.42-9.05,47.42-37.29,0-4.48-1.72-11.42-5.86-17.45h-39.29Z"/>
        <path class="cls-1" d="M373.85,188.89v-29.11h36.56c15.2,0,19.91,9.77,19.91,15.57,0,7.06-4.68,13.25-18.87,13.55h38.63c2.73-4.27,3.94-9.13,3.94-14.09,0-25.52-18.64-36.74-43.62-36.74h-60.1v50.84h23.53Z"/>
      </g>
      <g>
        <path class="cls-1" d="M496.04,188.89c4.06-16.75,16.68-31.65,40.17-31.65s35.97,14.88,39.98,31.65h23.95c-4.81-28.25-26.14-53.37-63.93-53.37s-58.97,25.05-63.98,53.37h23.8Z"/>
        <path class="cls-1" d="M577.04,210.03c-2.71,18.35-14.55,35.73-40.83,35.73s-38.19-17.34-40.98-35.73h-23.79c2.97,30.37,23.7,57.63,64.77,57.63s61.21-27.7,64.49-57.63h-23.66Z"/>
      </g>
      <g>
        <polygon class="cls-1" points="688.69 188.89 723.37 139.14 723.37 138.05 697.12 138.05 665.44 185.3 633.77 138.05 607.52 138.05 607.52 139.14 642.05 188.89 688.69 188.89"/>
        <polygon class="cls-1" points="643.75 210.03 606.25 264.04 606.25 264.76 633.04 264.76 665.44 217.15 697.84 264.76 724.63 264.76 724.63 264.04 686.98 210.03 643.75 210.03"/>
      </g>
      <g>
        <path class="cls-1" d="M699.38,206.48h3.1v-13.82h-3.22v-3.54h7.08v17.36h2.86v3.31h-9.83v-3.31Z"/>
        <path class="cls-1" d="M710.9,197.95c0-12.34,18.12-12.31,18.12,0v2.98c0,12.31-18.12,12.34-18.12,0v-2.98ZM714.76,200.93c0,7.5,10.39,7.5,10.39,0v-2.98c0-7.38-10.39-7.47-10.39,0v2.98Z"/>
        <path class="cls-1" d="M730.82,206.48h3.1v-13.82h-3.22v-3.54h7.08v17.36h2.86v3.31h-9.83v-3.31Z"/>
      </g>
      <g>
        <path class="cls-1" d="M390.21,82.72c-3.94-6.33-10.27-7.26-16.36-7.33-6.33,0-16.37,2.32-16.37,10.96,0,6.87,7.41,8.49,16.52,10.19,10.42,2.01,21.23,3.86,21.23,15.52-.08,12.2-12.35,15.13-21.38,15.13-8.42,0-17.99-3.47-22.15-11.73l3.71-1.85c3.32,6.56,11.81,9.8,18.45,9.8s17.21-1.85,17.21-11.43c.08-8.1-8.88-9.88-17.75-11.58-9.88-1.93-19.99-3.94-19.99-13.89-.23-11.42,11.66-14.97,20.53-14.97,7.72,0,14.43,1.24,19.76,9.18l-3.4,2.01Z"/>
        <path class="cls-1" d="M412.91,76.7v11.5h12.97v3.16h-12.97v23.23c0,5.17,1.08,8.8,7.02,8.8,1.85,0,3.94-.62,5.87-1.55l1.31,3.09c-2.39,1.16-4.79,1.93-7.18,1.93-8.11,0-10.73-4.79-10.73-12.27v-23.23h-8.1v-3.16h8.1v-11.12l3.71-.39Z"/>
        <path class="cls-1" d="M465.32,126.33v-6.87c-2.93,5.25-8.26,7.41-13.59,7.49-10.19,0-17.21-6.25-17.21-16.83v-22h3.78v21.92c0,8.65,5.33,13.28,13.59,13.2,7.87-.08,13.35-6.02,13.35-13.89v-21.23h3.78v38.21h-3.71Z"/>
        <path class="cls-1" d="M515.58,72.3v54.03h-3.71v-8.41c-3.16,5.79-9.42,9.03-15.9,9.03-10.65,0-19.07-7.02-19.07-19.68s8.49-19.68,19.14-19.68c6.56,0,12.74,2.78,15.82,8.95v-24.24h3.71ZM480.61,107.26c0,10.58,7.02,15.98,15.59,15.98s15.59-6.56,15.59-16.06-6.79-15.98-15.59-15.98-15.59,5.33-15.59,16.06Z"/>
        <path class="cls-1" d="M531.48,75.77c0,4.01-6.1,4.01-6.1,0s6.1-4.01,6.1,0ZM526.47,88.04v38.29h3.78v-38.29h-3.78Z"/>
        <path class="cls-1" d="M540.13,107.34c0-12.12,8.65-19.84,19.38-19.84s19.38,7.72,19.38,19.84-8.65,19.53-19.38,19.53-19.38-7.41-19.38-19.53ZM575.17,107.34c0-9.88-7.02-16.29-15.67-16.29s-15.67,6.41-15.67,16.29,7.02,15.82,15.67,15.82,15.67-5.94,15.67-15.82Z"/>
      </g>
    </g>
  </g>
</svg>