<?xml version="1.0" encoding="UTF-8"?>
<svg id="Camada_2" data-name="Camada 2" xmlns="http://www.w3.org/2000/svg" viewBox="0 0 1065.96 372.67">
  <defs>
    <style>
      .cls-1 {
        fill: #fff;
        stroke-width: 0px;
      }
    </style>
  </defs>
  <g id="Camada_1-2" data-name="Camada 1">
    <g>
      <g>
        <circle class="cls-1" cx="154.51" cy="19.34" r="19.34"/>
        <circle class="cls-1" cx="156.65" cy="243.66" r="19.34"/>
        <circle class="cls-1" cx="19.34" cy="131.5" r="19.34"/>
        <circle class="cls-1" cx="292.35" cy="131.5" r="19.34"/>
        <path class="cls-1" d="M156.68,254.74L5.87,131.55,154.46,8.26l151.4,123.19-149.17,123.29ZM32.81,131.45l123.81,101.13,122.23-101.03L154.56,30.42l-121.75,101.02Z"/>
      </g>
      <g>
        <circle class="cls-1" cx="154.51" cy="129.01" r="19.34"/>
        <circle class="cls-1" cx="156.65" cy="353.33" r="19.34"/>
        <circle class="cls-1" cx="19.34" cy="241.17" r="19.34"/>
        <circle class="cls-1" cx="292.35" cy="241.17" r="19.34"/>
        <path class="cls-1" d="M156.68,364.41L5.87,241.22l148.58-123.29,151.4,123.19-149.17,123.29ZM32.81,241.12l123.81,101.13,122.23-101.03-124.29-101.13-121.75,101.02Z"/>
      </g>
      <rect class="cls-1" x="10.78" y="131.5" width="17.12" height="109.67"/>
      <rect class="cls-1" x="145.95" y="19.34" width="17.12" height="109.67"/>
      <rect class="cls-1" x="148.09" y="249.65" width="17.12" height="109.67"/>
      <rect class="cls-1" x="283.79" y="131.5" width="17.12" height="109.67"/>
      <g>
        <g>
          <g>
            <path class="cls-1" d="M821.67,192.26c7.09.62,15.97,5,15.97,12.86,0,8.9-10.38,11.33-17.66,11.33h-27.24v-24.19h-17.53v40.77h44.76c19.55,0,35.32-6.74,35.32-27.78,0-3.34-1.28-8.51-4.37-12.99h-29.27Z"/>
            <path class="cls-1" d="M792.74,176.52v-21.69h27.24c11.33,0,14.83,7.28,14.83,11.6,0,5.26-3.49,9.87-14.05,10.09h28.78c2.03-3.18,2.94-6.8,2.94-10.5,0-19.01-13.89-27.37-32.49-27.37h-44.76v37.87h17.53Z"/>
          </g>
          <g>
            <path class="cls-1" d="M883.75,176.52c3.02-12.48,12.42-23.57,29.92-23.57s26.79,11.08,29.78,23.57h17.84c-3.58-21.04-19.47-39.75-47.62-39.75s-43.92,18.66-47.65,39.75h17.73Z"/>
            <path class="cls-1" d="M944.09,192.26c-2.02,13.67-10.84,26.61-30.42,26.61s-28.45-12.92-30.52-26.61h-17.72c2.21,22.62,17.65,42.93,48.25,42.93s45.6-20.63,48.04-42.93h-17.62Z"/>
          </g>
          <g>
            <polygon class="cls-1" points="1027.26 176.52 1053.09 139.46 1053.09 138.65 1033.54 138.65 1009.94 173.84 986.35 138.65 966.8 138.65 966.8 139.46 992.52 176.52 1027.26 176.52"/>
            <polygon class="cls-1" points="993.78 192.26 965.85 232.49 965.85 233.03 985.81 233.03 1009.94 197.57 1034.08 233.03 1054.03 233.03 1054.03 232.49 1025.98 192.26 993.78 192.26"/>
          </g>
          <g>
            <path class="cls-1" d="M1035.22,189.62h2.31v-10.29h-2.4v-2.64h5.28v12.93h2.13v2.46h-7.32v-2.46Z"/>
            <path class="cls-1" d="M1043.8,183.26c0-9.19,13.5-9.17,13.5,0v2.22c0,9.17-13.5,9.19-13.5,0v-2.22ZM1046.68,185.48c0,5.59,7.74,5.59,7.74,0v-2.22c0-5.5-7.74-5.56-7.74,0v2.22Z"/>
            <path class="cls-1" d="M1058.63,189.62h2.31v-10.29h-2.4v-2.64h5.28v12.93h2.13v2.46h-7.32v-2.46Z"/>
          </g>
        </g>
        <g>
          <path class="cls-1" d="M432.29,158.21c-6.88-11.06-17.94-12.68-28.59-12.82-11.06,0-28.6,4.05-28.6,19.16,0,12,12.95,14.84,28.87,17.8,18.21,3.51,37.09,6.75,37.09,27.11-.14,21.31-21.58,26.44-37.36,26.44-14.71,0-31.43-6.07-38.71-20.5l6.47-3.24c5.8,11.46,20.64,17.13,32.24,17.13s30.08-3.24,30.08-19.97c.14-14.16-15.51-17.27-31.02-20.23-17.27-3.37-34.94-6.88-34.94-24.28-.41-19.96,20.37-26.17,35.88-26.17,13.49,0,25.22,2.16,34.53,16.05l-5.94,3.51Z"/>
          <path class="cls-1" d="M471.96,147.69v20.1h22.66v5.53h-22.66v40.6c0,9.04,1.89,15.38,12.28,15.38,3.24,0,6.88-1.08,10.25-2.7l2.29,5.4c-4.18,2.02-8.36,3.37-12.54,3.37-14.17,0-18.75-8.36-18.75-21.45v-40.6h-14.16v-5.53h14.16v-19.42l6.47-.68Z"/>
          <path class="cls-1" d="M563.55,234.42v-12c-5.12,9.17-14.43,12.95-23.74,13.08-17.81,0-30.08-10.93-30.08-29.41v-38.44h6.61v38.31c0,15.11,9.31,23.2,23.74,23.07,13.76-.13,23.33-10.52,23.33-24.28v-37.09h6.61v66.77h-6.47Z"/>
          <path class="cls-1" d="M651.37,140v94.42h-6.47v-14.7c-5.53,10.11-16.45,15.78-27.79,15.78-18.62,0-33.32-12.28-33.32-34.4s14.84-34.39,33.45-34.39c11.46,0,22.26,4.85,27.65,15.64v-42.35h6.47ZM590.27,201.1c0,18.48,12.28,27.92,27.25,27.92s27.25-11.46,27.25-28.06-11.87-27.92-27.25-27.92-27.25,9.31-27.25,28.06Z"/>
          <path class="cls-1" d="M679.16,146.07c0,7.01-10.66,7.01-10.66,0s10.66-7.01,10.66,0ZM670.4,167.52v66.9h6.61v-66.9h-6.61Z"/>
          <path class="cls-1" d="M694.27,201.24c0-21.18,15.11-34.67,33.86-34.67s33.86,13.49,33.86,34.67-15.11,34.13-33.86,34.13-33.86-12.95-33.86-34.13ZM755.51,201.24c0-17.27-12.28-28.46-27.38-28.46s-27.38,11.2-27.38,28.46,12.28,27.65,27.38,27.65,27.38-10.39,27.38-27.65Z"/>
        </g>
      </g>
    </g>
  </g>
</svg>